<svg xmlns="http://www.w3.org/2000/svg" xmlns:xlink="http://www.w3.org/1999/xlink" viewBox="0 0 374 374"><defs><path d="M150.7 301.5A150.7 150.7 0 1 0 150.6 0a150.7 150.7 0 0 0 0 301.5Z" id="a"/><path d="M18.3 0h31c.1 4.2 3.5 8 10.2 11.2 25.9 12.6 25.9 34.5 25.9 56 0 22.6-2.7 40-8.2 52.4a10 10 0 0 1-9 6H19.5a10 10 0 0 1-9.5-7C3.4 97.3 0 77.6 0 59.6c0-16 11-32.4 16.4-48.4.9-2.6 1.5-6.3 1.9-11.2Z" id="c"/><path d="M26.7 0C35.8 0 42 4 39.5 7.9c-5.7 9.4-8.8 17.5 3.6 37.2C51.3 58.2 59.7 65.5 68.4 67l-2.9 22.4a10 10 0 0 1-9.8 8.6H15.8c-3.7 0-7-2.3-8.2-5.9C3.6 80.3 1 67.5.2 53.5-1.5 29.1 11.2 0 26.7 0Z" id="e"/><path d="M8.2.5C0 3.4-4.2 16.2 6.2 33.2c10.4 17 17.3 19.6 23 16.1 6.5-3 5.6-17 0-31.6C23.6 3.1 15-1.7 8.2.5Z" id="f"/><path d="M18.3 0h31c.1 4.2 3.5 8 10.2 11.2 25.9 12.6 25.9 34.5 25.9 56 0 22.6-2.7 40-8.2 52.4a10 10 0 0 1-9 6H19.5a10 10 0 0 1-9.5-7C3.4 97.3 0 77.6 0 59.6c0-16 11-32.4 16.4-48.4.9-2.6 1.5-6.3 1.9-11.2Z" id="h"/><path d="M14 0a5.8 5.8 0 0 1 4.7 9.4v2a14 14 0 1 1-9.4 0v-2c-.7-1-1.1-2.2-1.1-3.6C8.2 2.6 10.8 0 14 0Z" id="j"/><path d="m5.6 3 4.8-3h26l4.5 2.8c3.3 2 5 5.8 4.4 9.5-.8 4.5-1.2 10.1-1.2 16.9 0 6.7.4 13.3 1.2 20A9.3 9.3 0 0 1 36 59.6H10.6a9.3 9.3 0 0 1-9.3-10.3c.9-8 1.3-14.7 1.3-20.1 0-5.6-.5-11.2-1.4-16.7C.6 8.7 2.3 4.9 5.6 3Z" id="l"/><path id="p" d="M0 0h55.7v63.3H0z"/><path d="M23 0h171l-3.8 168a13 13 0 0 1-13 12.7H14.8a13 13 0 0 1-13-14.7L23.2 0Z" id="r"/><path d="M0 0h48.8l6 167.2a13 13 0 0 1-13 13.5H13a13 13 0 0 1-13-13V0Z" id="t"/><rect id="n" x="0" y="0" width="37.4" height="11.7" rx="1.2"/></defs><g fill="none" fill-rule="evenodd"><path d="M0 0h374v374H0z"/><g transform="translate(37.7 44.5)"><mask id="b" fill="#fff"><use xlink:href="#a"/></mask><use fill="#D7E7F7" xlink:href="#a"/><path fill-opacity=".3" fill="#0271CE" mask="url(#b)" d="M0-10.4h301.3v252.2H0z"/></g><g transform="translate(3 32)"><rect fill="#4B98E3" x="49.7" y="128.6" width="72.3" height="6" rx="3"/><g transform="rotate(5 -204.2 1832.3)"><mask id="d" fill="#fff"><use xlink:href="#c"/></mask><use fill="#FF7B22" xlink:href="#c"/><path fill="#E24C00" mask="url(#d)" d="M36.9 0h48.5v125.5H36.9z"/><g mask="url(#d)"><use fill="#E24C00" xlink:href="#e" transform="translate(9.8 11.3)"/></g></g><path fill="#9C3" d="m178 16.4 31 2.8-.8 8.6-31-2.7z"/><path fill="#A93900" d="m178.5 25.2 28.4 2.5V29l-28.6-2.5z"/><path fill="#690" d="m196.5 18 12.4 1.1-.8 8.7-12.3-1z"/><path fill="#9C3" d="m181.8 1.8 26 2.3-1.4 16.1-26-2.2z"/><path fill="#690" d="m197.8 3.2 9.9.9-1.4 16.1-9.9-.8z"/><g transform="rotate(5 -468.6 2347.3)"><mask id="g" fill="#fff"><use xlink:href="#f"/></mask><use fill="#BC3F00" xlink:href="#f"/><path fill="#FF7B22" mask="url(#g)" d="m15.6 49.2 35.5-32.8L60.9 71H12.5z"/></g><path d="M211.8 57.5c-6 1.5-7 13-1.3 23.9 5.6 10.8 10.8 15.5 14.8 13.5 4-2.3 4.5-11.1.8-23.5s-10.5-15.1-14.3-14Z" fill="#97C3EA"/><g transform="rotate(5 -204.2 1832.3)"><mask id="i" fill="#fff"><use xlink:href="#h"/></mask><path fill="#BC3F00" mask="url(#i)" d="m1 26.8 85.9 80.9-86 1.1z"/></g><g transform="rotate(5 -222.2 2587)"><g transform="translate(9.3)"><mask id="k" fill="#fff"><use xlink:href="#j"/></mask><use fill="#FEBC11" xlink:href="#j"/><path d="M14-.4h18.7V20H14V9.7A8 8 0 0 0 15.2 5c0-2-.4-3.8-1.2-5.4Z" fill="#E7A908" mask="url(#k)"/></g><g transform="translate(0 30.4)"><mask id="m" fill="#fff"><use xlink:href="#l"/></mask><use fill="#F5F5F5" xlink:href="#l"/><path fill="#D8D8D8" mask="url(#m)" d="M7-1.2h37.4v4.7H10.5z"/><path d="M23.4 1.2c-2.6-6.7 4.8-6.7 22.2 0v58.4c-18.3 5.7-25.7 5.7-22.2 0 5.2-8.5 0-17.4 0-31 0-13.7 3.8-17.4 0-27.4Z" fill="#D8D8D8" mask="url(#m)"/><rect fill="#D8D8D8" mask="url(#m)" y="14" width="10.5" height="2.3" rx="1.2"/><rect fill="#D8D8D8" mask="url(#m)" y="21" width="5.8" height="2.3" rx="1.2"/><rect fill="#D8D8D8" mask="url(#m)" y="28.1" width="10.5" height="2.3" rx="1.2"/><rect fill="#D8D8D8" mask="url(#m)" y="35.1" width="5.8" height="2.3" rx="1.2"/><rect fill="#D8D8D8" mask="url(#m)" y="42.1" width="10.5" height="2.3" rx="1.2"/></g><g transform="translate(4.7 19.9)"><mask id="o" fill="#fff"><use xlink:href="#n"/></mask><use fill="#96D6F4" xlink:href="#n"/><path fill="#81B7D1" mask="url(#o)" d="M18.7 0h18.7v11.7H18.7z"/></g><rect fill="#679FB9" x="18.7" y="24.6" width="11.7" height="2.3" rx="1.2"/><rect fill="#679FB9" x="31.5" y="24.6" width="4.7" height="2.3" rx="1.2"/></g><g transform="translate(111.6 33.2)"><mask id="q" fill="#fff"><use xlink:href="#p"/></mask><g mask="url(#q)"><path d="M-16.2 91c3.3 8.5 15.1 7.8 22.8 6.2a49.2 49.2 0 0 0 25-14.1C44 71 52.4 49.7 48 32.6c-2.8-10.9-7-17-18.2-19.3-5-1-8.2-2.5-9.4-7.6-.7-2.8.4-3.6-2.5-1.6-3 2-2.6 3-.4 5.6 6.1 7.5 13.9 13.3 17.3 22.9 2.8 8 1.3 18-2.1 25.7a54.1 54.1 0 0 1-48.9 32.6Z" fill="#FFCD00"/><path d="M-16.6 89.6c4.3-6.7 11.3-9.8 18.1-13.4A43.7 43.7 0 0 0 18.9 61a41 41 0 0 0 7.2-21.2c-.1-8.2-2.7-15-6.6-22a13 13 0 0 0-3.5-4.2c-.8-.7-4.2-2.4-4.3-3.4-.2-1.3 2.6-3.3 3.7-3.2 1.1 0 2.6 2 3.5 2.8 6.8 6.5 11.1 10 16.2 18A35 35 0 0 1 39.3 39c.3 4.3-1.1 9.6-2.3 13.6A61.3 61.3 0 0 1 27.2 73C22 79.6 13 85 5.9 89.5c-6.4 4.2-18 7.6-22.5.1Z" fill="#F9E741"/><path d="M-16 89a5 5 0 0 1 .7 3.9c-1.5-.9-2-2.5-.7-4ZM12 9.8c1.6-.9 3.4-1.5 4.6-2.8l2.6-2.9c.6-.6.8-1.3-.3-1.4-1-.1-2 .7-2.8 1-.9.5-1.4 1-2 1.8-.7.6-1.2 1.3-1.7 2.1-.4.7-1.3 1.6-.3 2.2Z" fill="#333"/></g></g><g transform="translate(86.5 89.2)"><path d="M23 0h171l-22.2 169.4a13 13 0 0 1-13 11.3H34.7a13 13 0 0 1-13-13.1L23 0Z" fill="#0271CE"/><mask id="s" fill="#fff"><use xlink:href="#r"/></mask><use fill="#0271CE" xlink:href="#r"/><g mask="url(#s)"><path d="M132.1 1c0 28.3-20.8 51.1-46.4 51.1-25.6 0-46.3-22.8-46.3-51V0h7.3v1c0 23.3 17.5 42.2 39 42.2 21.6 0 39-18.9 39-42.1V0h7.4v1Z" fill="#0056A8"/><path d="M125.6 1a45.5 45.5 0 0 1-46.4 44.6A45.5 45.5 0 0 1 33 0h7.3v1a38 38 0 0 0 39 36.8 38 38 0 0 0 39-37.8h7.4v1Z" fill="#0271CE"/></g><g mask="url(#s)" fill="#FEBC11"><path d="M71 63.5c-2 0-3.6 1.1-3.6 2.5l1.2 13.8c.1.8 1.2 1.4 2.4 1.4s2.2-.6 2.4-1.4L74.5 66c0-1.4-1.5-2.5-3.5-2.5ZM52.2 74.8c-1.2-.7-3 .1-4 1.9-1 1.7-.8 3.7.4 4.3L61.1 87c.8.3 1.8-.3 2.5-1.4.6-1 .5-2.2-.1-2.7l-11.3-8ZM93.3 81c1.2-.6 1.4-2.6.4-4.3-1-1.8-2.8-2.6-4-1.9l-11.2 8c-.7.5-.7 1.7-.1 2.7.6 1.1 1.6 1.7 2.4 1.4L93.3 81ZM48.6 98.7c-1.2.7-1.3 2.6-.3 4.4 1 1.7 2.7 2.5 4 1.9l11.2-8c.6-.6.7-1.8 0-2.8-.6-1-1.6-1.6-2.4-1.4l-12.5 5.9Zm32.2-5.9c-.8-.2-1.8.3-2.4 1.4-.6 1-.6 2.2 0 2.8l11.3 8c1.2.6 3-.2 4-2 1-1.7.8-3.6-.4-4.3l-12.5-5.9ZM71 98.5c-1.2 0-2.3.6-2.4 1.4l-1.2 13.9c0 1.3 1.6 2.5 3.6 2.5s3.5-1.2 3.5-2.5l-1.1-13.9c-.2-.8-1.2-1.4-2.4-1.4Z"/></g><g mask="url(#s)"><g transform="translate(145.1)"><mask id="u" fill="#fff"><use xlink:href="#t"/></mask><use fill="#0065B8" xlink:href="#t"/><path fill="#0056A8" mask="url(#u)" transform="rotate(-180 17.9 161.9)" d="M.5 143h25.3l9.4 8.1-5.4 29.6z"/><path fill="#0056A8" mask="url(#u)" transform="matrix(-1 0 0 1 53.6 0)" d="M-.3-2.8h44.8l9.4 8-22 19.1z"/></g></g><path d="M144.3 0H170l-10.8 180.7h-22.4a13 13 0 0 1-13-14.6L144.3 0Z" fill="#0056A8" mask="url(#s)"/></g><g><path d="M83.3 67.7a23.4 23.4 0 0 0 13.6-30.3 23.9 23.9 0 0 0-31.2-12.5 23.4 23.4 0 0 0-13.6 30.4 23.9 23.9 0 0 0 31.2 12.4" fill="#F08232"/><path d="M67.7 28.4c-1.5.6-3 .7-3.2.2-.2-.5.9-1.4 2.4-2 1.6-.6 3-.6 3.3-.1.2.5-.9 1.4-2.5 2" fill="#E97B3C"/><path d="M62 66.5c6.2 3.4 14 4.1 21.2 1.2A23.3 23.3 0 0 0 97 37.5a23 23 0 0 0-17.8-13.8c4.5 2.4 8 6.2 10 11.1a23.3 23.3 0 0 1-13.7 30.3 25 25 0 0 1-13.3 1.4" fill="#D3672D"/><path d="M75.3 17.9c3.8-4.4 3.2-11.3 3.2-11.3s-6.8.2-10.7 4.6c-3.8 4.4-3.2 11.3-3.2 11.3s6.9-.2 10.7-4.6" fill="#9C3"/><path d="M77.6 10.4c-.2 2.3-.9 5.4-3 7.8-3.5 4.1-10 4.3-10 4.3s-.2-2.8.6-5.8v2.8s6.4-.2 10-4.3a12 12 0 0 0 2.4-4.8" fill="#690"/><path d="M67.3 28.6c-.5.2-1 0-1.4-.3-1-.9-2-2.4-3-4.5-.6-1.6-.9-3-1-5-.1-.8.4-1.4 1.2-1.5.8-.1 1.4.4 1.5 1a13.7 13.7 0 0 0 3.3 8.2c.5.5.5 1.2 0 1.8l-.6.3" fill="#714511"/></g><rect fill="#006EDE" x="81.4" y="89.4" width="36.2" height="6" rx="3"/><rect fill="#4B98E3" x="21.1" y="207" width="63.3" height="6" rx="3"/><rect fill="#0271CE" y="166.3" width="81.4" height="6" rx="3"/></g></g></svg>
