<svg xmlns="http://www.w3.org/2000/svg" xmlns:xlink="http://www.w3.org/1999/xlink" viewBox="0 0 374 374"><defs><path id="i" d="M82.5 0v10.493H81v43.471H1.5V10.493H0V0z"/><path id="q" d="M0 0h43.676l5.393 149.911c.23 6.38-4.76 11.738-11.144 11.967-.138.005-.277.008-.415.008H11.567C5.18 161.886 0 156.71 0 150.326V0Z"/><path id="w" d="M18.387 0h120.225c8.045 0 14.658 6.343 14.987 14.376l3.394 82.813a5.998 5.998 0 0 1-5.995 6.242H6a5.998 5.998 0 0 1-5.995-6.242l3.394-82.813C3.73 6.343 10.341 0 18.387 0Z"/><path id="reuse-0" fill="#FFCE4D" d="m.424 16.963.338-1.037c1.477-4.546 6.363-7.033 10.912-5.556.607.197 1.19.46 1.74.786l7.216 4.275a6.488 6.488 0 0 1 2.865 7.589l-.506 1.557a6.495 6.495 0 0 1-6.782 4.457l-8.353-.78C3.092 27.807-.407 23.59.038 18.83c.06-.635.19-1.262.386-1.868Z"/><path id="reuse-1" fill="#FFCE4D" d="m9.685 43.372-.882-.64a8.65 8.65 0 0 1-.63-13.5l6.298-5.537a6.498 6.498 0 0 1 8.108-.378l1.326.963a6.488 6.488 0 0 1 2.145 7.822L22.727 39.8c-1.895 4.388-6.991 6.41-11.383 4.517a8.661 8.661 0 0 1-1.659-.945Z"/><path id="reuse-2" fill="#E6A31D" d="m37.68 42.731-.882.641a8.664 8.664 0 0 1-13.04-3.572l-3.325-7.698a6.488 6.488 0 0 1 2.146-7.822l1.326-.963a6.498 6.498 0 0 1 8.107.378l6.299 5.538a8.65 8.65 0 0 1-.63 13.498Z"/><path id="reuse-3" fill="#E6A31D" d="m45.722 15.926.337 1.037c1.478 4.545-1.011 9.427-5.56 10.904a8.665 8.665 0 0 1-1.87.386l-8.352.78a6.495 6.495 0 0 1-6.782-4.456l-.506-1.557a6.488 6.488 0 0 1 2.865-7.59l7.216-4.274c4.115-2.437 9.427-1.08 11.866 3.031a8.69 8.69 0 0 1 .786 1.739Z"/><path id="reuse-4" fill="#FFCE4D" d="M22.696 0h1.091c4.783 0 8.66 3.875 8.66 8.654 0 .638-.07 1.274-.21 1.896l-1.839 8.18a6.494 6.494 0 0 1-6.337 5.068h-1.639a6.494 6.494 0 0 1-6.336-5.068l-1.839-8.18C13.2 5.887 16.132 1.258 20.8.21A8.635 8.635 0 0 1 22.696 0Z"/></defs><defs><use xlink:href="#i"/><use xlink:href="#i" id="k"/><use xlink:href="#i" id="m"/><use xlink:href="#q"/><use xlink:href="#q" id="s"/><use xlink:href="#w"/><use xlink:href="#w" id="y"/><use xlink:href="#w" id="A"/><use xlink:href="#w" id="C"/><use xlink:href="#w" id="E"/><use xlink:href="#w" id="G"/><use xlink:href="#w" id="I"/><use xlink:href="#w" id="K"/><use xlink:href="#w" id="M"/><use xlink:href="#w" id="O"/><rect id="a" width="300" height="299.799" x="0" y="0" rx="149.899"/><rect id="e" width="300" height="299.799" x="0" y="0" rx="149.899"/><rect id="g" width="300" height="299.799" x="0" y="0" rx="149.899"/><rect id="u" width="300" height="299.799" x="0" y="0" rx="149.899"/><path id="o" d="M0 0h82.5v10.493H0z"/><path id="Q" d="M109.33 0 85.623 55.277H23.241L0 0z"/><ellipse id="c" cx="32.25" cy="32.228" rx="32.25" ry="32.228"/></defs><g fill="none" fill-rule="evenodd"><path d="M0 0h374v374H0z"/><rect width="300" height="299.799" fill="#80B8EE" fill-rule="nonzero" rx="149.899" transform="translate(38 44.201)"/><g transform="translate(38 44.201)"><mask id="b" fill="#fff"><use xlink:href="#a"/></mask><g mask="url(#b)"><g transform="translate(90 44.97)"><ellipse cx="54.75" cy="54.713" fill="#FFF" rx="54.75" ry="54.713"/><ellipse cx="54.75" cy="54.713" stroke="#FFE190" stroke-width="1.5" rx="54" ry="53.964"/><ellipse cx="32.25" cy="32.228" fill="#F1F1F2" fill-rule="nonzero" rx="32.25" ry="32.228" transform="translate(22.5 22.485)"/><g transform="translate(22.5 22.485)"><mask id="d" fill="#fff"><use xlink:href="#c"/></mask><ellipse cx="35.25" cy="35.226" fill="#FFF" fill-rule="nonzero" mask="url(#d)" rx="32.25" ry="32.228"/></g></g></g></g><g transform="translate(38 44.201)"><mask id="f" fill="#fff"><use xlink:href="#e"/></mask><path fill="#004F9A" fill-rule="nonzero" d="M-45 256.328h391.5v71.952H-45z" mask="url(#f)"/></g><g transform="translate(38 44.201)"><mask id="h" fill="#fff"><use xlink:href="#g"/></mask><g mask="url(#h)"><path fill="#0271CE" fill-rule="nonzero" d="M85.902 94.827h151.82l5.35 148.41c.231 6.38-4.758 11.739-11.142 11.969-.139.005-.278.007-.417.007H96.128c-6.388 0-11.567-5.175-11.567-11.56v-.103l1.341-148.723Z"/><path fill="#0271CE" fill-rule="nonzero" d="M76.3 94.437h160.9l5.371 149.912c.229 6.38-4.762 11.737-11.146 11.966-.138.005-.276.007-.414.007H82.49c-6.389 0-11.567-5.175-11.567-11.56 0-.137.002-.275.007-.413L76.3 94.437Z"/><path fill="#0056A8" fill-rule="nonzero" d="m154.929 256.328-40.5-.094 3-53.87z" opacity=".7"/><path fill="#FFF" fill-rule="nonzero" d="M118.5 202.364v10.493H117v43.471H37.5v-43.47H36v-10.494z"/><g transform="translate(36 202.364)"><mask id="j" fill="#fff"><use xlink:href="#i"/></mask><path fill="#FFC220" fill-rule="nonzero" d="M66 0h4.5v53.964H66z" mask="url(#j)"/></g><g transform="translate(36 202.364)"><mask id="l" fill="#fff"><use xlink:href="#k"/></mask><path fill="#C7C8CB" fill-rule="nonzero" d="M55.5 0h27v10.493H81v43.471H55.5z" mask="url(#l)"/></g><g transform="translate(36 202.364)"><mask id="n" fill="#fff"><use xlink:href="#m"/></mask><path fill="#C7C8CB" fill-rule="nonzero" d="M1.5 10.493h54v2.998h-54z" mask="url(#n)"/></g><g fill-rule="nonzero"><path fill="#B3D4F5" d="M65.217 174.834c-2.365 1.202-2.813 5.059-1.63 9.869.788 3.207 4.136 9.339 10.043 18.396h2.64l-.648-1.664c-2.621-6.824-4.268-12.284-4.94-16.38-.725-4.424-.575-7.831.448-10.221a14.682 14.682 0 0 0-5.913 0Z"/><path fill="#F1F1F2" d="M65.217 174.834c4.953-.81 8.501 1.028 10.644 5.514 2.142 4.486 1.619 12.07-1.571 22.75h3.3c6.664-10.992 8.024-19.294 4.082-24.906-3.942-5.612-9.427-6.731-16.455-3.358Z"/><path fill="#B3D4F5" d="M47.67 191.494c-.855 2.537-.855 6.766 3.417 9.303 2.847 1.692 10.103 2.45 21.766 2.277h3.417c-9.135-1.744-15.536-3.912-19.203-6.505s-5.376-5.695-5.126-9.304a15.178 15.178 0 0 0-4.272 4.229Z"/><path fill="#F1F1F2" d="M47.883 191.316c3.78-3.372 8.02-4.232 12.72-2.581 4.699 1.65 8.791 6.439 12.276 14.364h3.391c-3.096-11.871-8.036-18.38-14.82-19.527-6.783-1.148-11.306 1.434-13.567 7.744Z"/><path fill="#B3D4F5" d="M104.211 191.494c.855 2.537.855 6.766-3.417 9.303-2.848 1.692-10.103 2.45-21.766 2.277H75.61c9.136-1.744 15.537-3.912 19.204-6.505 3.666-2.593 5.375-5.695 5.126-9.304a15.178 15.178 0 0 1 4.271 4.229Z"/><path fill="#F1F1F2" d="M103.998 191.316c-3.78-3.372-8.02-4.232-12.72-2.581-4.7 1.65-8.791 6.439-12.276 14.364H75.61c3.097-11.871 8.037-18.38 14.82-19.527 6.784-1.148 11.306 1.434 13.568 7.744Z"/></g><path fill="#FFF" fill-rule="nonzero" d="M36 202.364h82.5v10.493H36z"/><g transform="translate(36 202.364)"><mask id="p" fill="#fff"><use xlink:href="#o"/></mask><path fill="#C7C8CB" fill-rule="nonzero" d="M57 0h25.5v53.964H57z" mask="url(#p)"/></g><path fill="#B3D4F5" fill-rule="nonzero" d="M102 202.364h4.5v53.964H102z"/><path fill="#F1F1F2" fill-rule="nonzero" d="M58.5 202.364H69v53.964H58.5z"/><path fill="#FEBC11" fill-rule="nonzero" d="M132.345 156.21c-1.59 0-2.853.913-2.853 2.018l.982 11.27c.093.674.912 1.202 1.87 1.202.983 0 1.801-.528 1.918-1.201l.959-11.27c0-1.106-1.263-2.02-2.876-2.02Zm-14.99 9.228c-.935-.553-2.338.12-3.133 1.538-.819 1.417-.679 3.003.28 3.556l9.962 4.782c.631.217 1.473-.24 1.964-1.105.491-.865.445-1.85-.07-2.283l-9.003-6.488Zm32.879 5.094c.935-.553 1.076-2.139.28-3.556-.818-1.418-2.221-2.091-3.156-1.538l-9.003 6.488c-.515.432-.562 1.418-.07 2.283.49.865 1.332 1.322 1.964 1.105l9.985-4.782Zm-35.732 14.395c-.959.576-1.099 2.162-.28 3.58.795 1.418 2.198 2.091 3.133 1.538l9.003-6.488c.515-.457.561-1.442.07-2.307-.49-.865-1.333-1.322-1.964-1.081l-9.962 4.758Zm25.747-4.758c-.632-.24-1.474.216-1.965 1.08-.49.866-.444 1.851.07 2.308l9.004 6.488c.935.553 2.338-.12 3.157-1.538.795-1.418.654-3.004-.281-3.58l-9.985-4.758Zm-7.881 4.613c-.982 0-1.8.505-1.894 1.178l-.982 11.27c0 1.13 1.262 2.043 2.853 2.043 1.613 0 2.876-.913 2.876-2.042l-.959-11.271c-.117-.673-.935-1.178-1.894-1.178Z"/><g fill-rule="nonzero"><path fill="#0056A8" d="M177.032 95.792c0 25.003-18.45 45.272-41.208 45.272-22.759 0-41.209-20.269-41.209-45.272 0-.322.004-.644.01-.964h6.543c-.008.32-.012.641-.012.964 0 20.637 15.521 37.367 34.668 37.367 19.146 0 34.667-16.73 34.667-37.367 0-.323-.004-.644-.012-.964h6.543c.006.32.01.642.01.964Z"/><path fill="#0271CE" d="M171.248 95.67c0 21.879-18.45 39.614-41.208 39.614-22.759 0-41.208-17.735-41.208-39.614 0-.282.003-.563.01-.844h6.542c-.007.28-.011.562-.011.844 0 18.059 15.52 32.698 34.667 32.698 19.146 0 34.667-14.64 34.667-32.698 0-.282-.004-.564-.011-.845h6.543c.006.282.009.563.009.845Z"/></g><path fill="#0065B8" fill-rule="nonzero" d="M193.5 94.437h43.676l5.393 149.91c.23 6.38-4.76 11.738-11.144 11.968-.138.005-.277.007-.415.007h-25.943c-6.388 0-11.567-5.175-11.567-11.56V94.438Z"/><g transform="translate(193.5 94.437)"><mask id="r" fill="#fff"><use xlink:href="#q"/></mask><path fill="#0056A8" fill-rule="nonzero" d="M0 137.907h39.676L48 145.02l-19.47 16.871z" mask="url(#r)" transform="rotate(-180 24 149.9)"/></g><g transform="translate(193.5 94.437)"><mask id="t" fill="#fff"><use xlink:href="#s"/></mask><path fill="#0056A8" fill-rule="nonzero" d="M.56-2.125h39.839l8.358 7.141-19.55 16.941z" mask="url(#t)" transform="matrix(-1 0 0 1 49.317 0)"/></g><path fill="#0056A8" fill-rule="nonzero" d="M192.458 94.437h22.563l2.479 161.885h-18.073c-6.389 0-11.568-5.175-11.568-11.56 0-.117.002-.235.006-.353l4.593-149.972Z"/></g></g><g transform="translate(38 44.201)"><mask id="v" fill="#fff"><use xlink:href="#u"/></mask><g mask="url(#v)"><path fill="#E3E4E5" fill-rule="nonzero" d="M197.137 149.9h120.226c8.045 0 14.658 6.343 14.987 14.376l3.394 82.813a5.998 5.998 0 0 1-5.995 6.24H184.751a5.998 5.998 0 0 1-5.995-6.24l3.394-82.813c.33-8.033 6.942-14.377 14.987-14.377Z"/><g transform="translate(178.75 149.9)"><mask id="x" fill="#fff"><use xlink:href="#w"/></mask><path fill="#ACADB0" fill-rule="nonzero" d="M82.033 0h59.145c8.115 0 14.758 6.45 14.993 14.556l2.4 82.705a5.998 5.998 0 0 1-5.824 6.167c-.058.003-.116.003-.174.003H71.837c-3.314 0-6-2.685-6-5.996v-.087l1.198-82.575C67.154 6.58 73.834 0 82.033 0Z" mask="url(#x)"/></g><g transform="translate(178.75 149.9)"><mask id="z" fill="#fff"><use xlink:href="#y"/></mask><path fill="#9E9FA3" fill-rule="nonzero" d="M136.25 8.994c6.627 0 12 5.369 12 11.992V73.45c0 6.623-5.373 11.992-12 11.992H89.976c-6.627 0-12-5.37-12-11.992l.99-52.69c.123-6.535 5.458-11.767 11.997-11.767h45.285Zm0 1.499H90.963c-5.602 0-10.195 4.39-10.485 9.94l-.013.356-.989 52.662c0 5.674 4.507 10.296 10.14 10.487l.36.006h46.272c5.678 0 10.304-4.505 10.494-10.133l.006-.36V20.986c0-5.674-4.507-10.297-10.139-10.487l-.36-.006Z" mask="url(#z)"/></g><g transform="translate(178.75 149.9)"><mask id="B" fill="#fff"><use xlink:href="#A"/></mask><path fill="#9E9FA3" fill-rule="nonzero" d="M47.3 8.994c6.628 0 12 5.369 12 11.992l-.007.44-2.036 55.462c-.237 6.448-5.536 11.553-11.992 11.553H19.637c-6.627 0-12-5.37-12-11.992l.006-.382L9.41 20.605c.206-6.472 5.515-11.611 11.994-11.611h25.898Zm0 1.499H21.404c-5.548 0-10.116 4.308-10.477 9.8l-.017.36-1.767 55.462c-.003.111-.005.222-.005.334 0 5.674 4.507 10.296 10.14 10.487l.36.006h25.628c5.529 0 10.088-4.279 10.473-9.75l.02-.359 2.036-55.462.007-.385c0-5.674-4.507-10.297-10.14-10.487l-.36-.006Z" mask="url(#B)"/></g><g transform="translate(178.75 149.9)"><mask id="D" fill="#fff"><use xlink:href="#C"/></mask><path fill="#3A3B3E" fill-rule="nonzero" d="M-.251 92.938h159v10.493h-159z" mask="url(#D)"/></g><g transform="translate(178.75 149.9)"><mask id="F" fill="#fff"><use xlink:href="#E"/></mask><path fill="#232325" fill-rule="nonzero" d="M65.749 92.938h93v10.493h-93z" mask="url(#F)"/></g><g transform="translate(178.75 149.9)"><mask id="H" fill="#fff"><use xlink:href="#G"/></mask><path fill="#232325" fill-rule="nonzero" d="M33.5 16.489a2.186 2.186 0 0 1 2.185 2.248l-1.372 47.97A2.314 2.314 0 0 1 32 68.953a2.186 2.186 0 0 1-2.186-2.248l1.372-47.97a2.314 2.314 0 0 1 2.314-2.247Z" mask="url(#H)"/></g><g transform="translate(178.75 149.9)"><mask id="J" fill="#fff"><use xlink:href="#I"/></mask><ellipse cx="31.249" cy="80.946" fill="#232325" fill-rule="nonzero" mask="url(#J)" rx="3" ry="2.998"/></g><g transform="translate(178.75 149.9)"><mask id="L" fill="#fff"><use xlink:href="#K"/></mask><ellipse cx="20.749" cy="80.946" fill="#232325" fill-rule="nonzero" mask="url(#L)" rx="3" ry="2.998"/></g><g transform="translate(178.75 149.9)"><mask id="N" fill="#fff"><use xlink:href="#M"/></mask><ellipse cx="41.749" cy="80.946" fill="#232325" fill-rule="nonzero" mask="url(#N)" rx="3" ry="2.998"/></g><g transform="translate(178.75 149.9)"><mask id="P" fill="#fff"><use xlink:href="#O"/></mask><rect width="19.5" height="2.998" x="23.749" y="31.479" fill="#9E9FA3" fill-rule="nonzero" mask="url(#P)" rx="1.499"/></g><path fill="#232325" fill-rule="nonzero" d="M187.5 253.33H198a2.999 2.999 0 0 1-3 2.998h-4.5c-1.657 0-3-1.342-3-2.998Zm45 0H243a2.999 2.999 0 0 1-3 2.998h-4.5c-1.657 0-3-1.342-3-2.998Z"/></g></g><path fill="#000" fill-rule="nonzero" d="m181.675 25.035 2.088-.571 24.696 90.178-2.089.571zM253.692 1l2.141.319-18.721 125.459-2.141-.319zm32.747 22.556 2.03.752-39.723 106.958-2.029-.753z"/><g fill-rule="nonzero" transform="translate(189.103 20.28)"><use xlink:href="#reuse-0"/><use xlink:href="#reuse-1"/><use xlink:href="#reuse-2"/><use xlink:href="#reuse-3"/><use xlink:href="#reuse-4"/><ellipse cx="23.242" cy="24.339" fill="#FFF" rx="9.201" ry="9.195"/></g><g fill-rule="nonzero" transform="translate(238.897 23.107)"><use xlink:href="#reuse-0"/><path fill="#E6A31D" d="m9.685 43.372-.882-.64a8.65 8.65 0 0 1-.63-13.5l6.298-5.537a6.498 6.498 0 0 1 8.108-.378l1.326.963a6.488 6.488 0 0 1 2.145 7.822L22.727 39.8c-1.895 4.388-6.991 6.41-11.383 4.517a8.661 8.661 0 0 1-1.659-.945Z"/><use xlink:href="#reuse-2"/><use xlink:href="#reuse-3"/><use xlink:href="#reuse-4"/><ellipse cx="23.242" cy="24.339" fill="#FFF" rx="9.201" ry="9.195"/></g><path fill="#E3E4E5" fill-rule="nonzero" d="m287.077 83.36-23.707 55.278h-62.382l-23.24-55.277z"/><g transform="translate(177.747 83.36)"><mask id="R" fill="#fff"><use xlink:href="#Q"/></mask><path fill="#BABBBE" fill-rule="nonzero" d="m13.253 8.809 107.984-54.242v203.368l-41.984-53.191z" mask="url(#R)"/></g><g fill-rule="nonzero" transform="translate(175.031 56.317)"><use xlink:href="#reuse-0"/><use xlink:href="#reuse-1"/><use xlink:href="#reuse-2"/><use xlink:href="#reuse-3"/><use xlink:href="#reuse-4"/><ellipse cx="23.242" cy="24.339" fill="#FFF" rx="9.201" ry="9.195"/></g><g fill-rule="nonzero" transform="translate(211.835 37.927)"><path fill="#FFC220" d="m.424 16.963.338-1.037c1.477-4.546 6.363-7.033 10.912-5.556.607.197 1.19.46 1.74.786l7.216 4.275a6.488 6.488 0 0 1 2.865 7.589l-.506 1.557a6.495 6.495 0 0 1-6.782 4.457l-8.353-.78C3.092 27.807-.407 23.59.038 18.83c.06-.635.19-1.262.386-1.868Z"/><path fill="#FFC220" d="m9.685 43.372-.882-.64a8.65 8.65 0 0 1-.63-13.5l6.298-5.537a6.498 6.498 0 0 1 8.108-.378l1.326.963a6.488 6.488 0 0 1 2.145 7.822L22.727 39.8c-1.895 4.388-6.991 6.41-11.383 4.517a8.661 8.661 0 0 1-1.659-.945Z"/><use xlink:href="#reuse-2"/><use xlink:href="#reuse-3"/><path fill="#FFC220" d="M22.696 0h1.091c4.783 0 8.66 3.875 8.66 8.654 0 .638-.07 1.274-.21 1.896l-1.839 8.18a6.494 6.494 0 0 1-6.337 5.068h-1.639a6.494 6.494 0 0 1-6.336-5.068l-1.839-8.18C13.2 5.887 16.132 1.258 20.8.21A8.635 8.635 0 0 1 22.696 0Z"/><ellipse cx="23.242" cy="24.339" fill="#FFF" rx="9.201" ry="9.195"/></g><g fill-rule="nonzero" transform="translate(236.98 64.476)"><use xlink:href="#reuse-0"/><use xlink:href="#reuse-1"/><use xlink:href="#reuse-2"/><use xlink:href="#reuse-3"/><use xlink:href="#reuse-4"/><ellipse cx="23.242" cy="24.339" fill="#FFF" rx="9.201" ry="9.195"/></g></g></svg>
